<svg xmlns="http://www.w3.org/2000/svg" viewBox="0 0 61.77 60.84"><defs><style>.cls-1{fill:#191919;}</style></defs><g id="Layer_2" data-name="Layer 2"><g id="Layer_1-2" data-name="Layer 1"><path class="cls-1" d="M.05,44.79c0-4.16.1-8.32,0-12.48a5.33,5.33,0,0,1,1.7-4.39c8.77-8.65,17.44-17.39,26.2-26,2.49-2.46,3.47-2.49,5.86-.13Q47.08,14.91,60.24,28.23a5.52,5.52,0,0,1,1.42,3.45c.12,8.82,0,17.65.11,26.47,0,2.3-.94,2.71-3,2.67-6.82-.11-13.65-.15-20.47,0C36,60.9,35.48,60,35.53,58c.11-4.66,0-9.32,0-14a18.59,18.59,0,0,0-.07-3A4.7,4.7,0,0,0,31,37a4.3,4.3,0,0,0-4.54,4.3c-.19,3.65,0,7.32-.1,11,0,2.63-.22,5.25-.34,7.88-2.62.19-5.23.49-7.85.54-4.82.1-9.65.05-14.48,0-3.63,0-3.66,0-3.68-3.49C0,53.12.05,49,.05,44.79Zm56.44-1.44c0-2.82-.08-5.65,0-8.48a5.36,5.36,0,0,0-1.68-4.42Q43.79,19.6,33,8.58c-1.47-1.5-2.42-1.71-4-.1Q18.29,19.36,7.42,30a5.52,5.52,0,0,0-1.84,4.36c.09,6,.1,12,0,18,0,2,.39,3,2.7,2.9,3-.18,6,0,9,0,3.56,0,3.59-.05,3.63-3.41,0-2.83-.07-5.66,0-8.49a20.64,20.64,0,0,1,.64-4.9,9.62,9.62,0,0,1,10.78-6.7,10.13,10.13,0,0,1,8.56,11c-.32,4,.3,8.16.51,12.25l12.92.24c.17,0,.33,0,.5,0,1.3.07,1.69-.62,1.68-1.84C56.46,50,56.48,46.68,56.49,43.35Z"/></g></g></svg>