<svg xmlns="http://www.w3.org/2000/svg" viewBox="0 0 295.67 83.77"><defs><style>.cls-1{fill:#191919;}</style></defs><g id="Layer_2" data-name="Layer 2"><g id="Layer_1-2" data-name="Layer 1"><path class="cls-1" d="M88.82,47a18.64,18.64,0,0,0,3.68-4.49,19.55,19.55,0,0,0,2.37-5.93,4.53,4.53,0,0,0,.12-.9q0-8.7.11-17.38c0-.53-.15-.64-.64-.65-2.45,0-4.89-.12-7.34-.19-.89,0-1.18-.25-1.26-1.13a6.85,6.85,0,0,1,.94-4.1,1.23,1.23,0,0,1,1.26-.67c2.3.11,4.61.17,6.91.27.42,0,.59,0,.6-.53.05-3.08.13-6.16.35-9.23C96,.43,96.71-.17,98.3,0a18.48,18.48,0,0,1,5,1.36c1.1.49,1.23.73,1.18,1.92-.13,2.73-.23,5.46-.37,8.19,0,.49.14.62.59.64q3.74.18,7.46.4c.81,0,1.62.16,2.44.22a.92.92,0,0,1,.91,1,5.4,5.4,0,0,1-.87,3.43,1.19,1.19,0,0,1-1,.54c-2.95.13-5.92.09-8.87.11-.66,0-.81.23-.83.82-.1,3.12-.27,6.24-.35,9.36-.11,4.24-.2,8.48-.24,12.72a23.41,23.41,0,0,0,.93,7.62,5.91,5.91,0,0,0,.83,1.69,1.82,1.82,0,0,0,2.51.68,6.28,6.28,0,0,0,2.25-1.84,16.88,16.88,0,0,0,3.66-8.09c.2-1.24.06-2.52.19-3.78.4-4.06,1-8,3.06-11.67a15.15,15.15,0,0,1,3.9-4.81,8.72,8.72,0,0,1,12.22,1.4c.23.28.45.58.71.91a3.64,3.64,0,0,0,.07-1.13,1.74,1.74,0,0,1,1.72-1.78,10.18,10.18,0,0,1,4.9,1.08,1.88,1.88,0,0,1,1.12,1.91c-.17,6.12-.46,12.23-.38,18.35a32.83,32.83,0,0,0,.73,7.53,6.4,6.4,0,0,0,.78,2,2.51,2.51,0,0,0,4,.56A8.59,8.59,0,0,0,149.08,46a16.41,16.41,0,0,0-.31-3.08c-.34-6.4.26-12.63,3.51-18.35a12,12,0,0,1,4.76-5,8.77,8.77,0,0,1,11.2,2.62l.47.63V22a1.84,1.84,0,0,1,2-2.09,10.51,10.51,0,0,1,4.88,1.17,1.56,1.56,0,0,1,.88,1.61c-.29,7.89-.3,15.79-.29,23.68a1.11,1.11,0,0,0,.09.68,19.08,19.08,0,0,0,1.4-2,55.35,55.35,0,0,0,7.23-16,.94.94,0,0,0-.34-1.17c-2.7-2.16-2.08-5.73-.66-7.86a5,5,0,0,1,5.34-2.16,3.15,3.15,0,0,1,2.69,3.23,9.42,9.42,0,0,1-.22,2.12c-.07.35,0,.46.38.4,2.36-.35,4.7-.82,7-1.3a6.72,6.72,0,0,1,2.49-.05,3.62,3.62,0,0,1,3,4.2c-.27,2-.8,3.91-1.23,5.86a41.33,41.33,0,0,0-1,11.41,16.59,16.59,0,0,0,1.21,5.77,5.7,5.7,0,0,0,1,1.59,2.67,2.67,0,0,0,3.79.36,4.62,4.62,0,0,0,1.3-1.52,7.81,7.81,0,0,0,.88-5.26,34.07,34.07,0,0,1,1.37-16.18,18.28,18.28,0,0,1,4.33-7.15,8.78,8.78,0,0,1,13.38.85l.49.65a3.47,3.47,0,0,0,.06-1.1,1.69,1.69,0,0,1,1.73-1.81,10,10,0,0,1,4.9,1.08,1.92,1.92,0,0,1,1.13,2c-.17,7.05-.61,14.11-.3,21.17a18.42,18.42,0,0,0,1,6.06,2.54,2.54,0,0,0,3.24,1.73,3.83,3.83,0,0,0,1.65-1.33A17.77,17.77,0,0,0,246.44,44a8,8,0,0,0,.25-2.12c0-6.79.09-13.58.17-20.37,0-1.92.6-2.39,2.5-2.07a31.82,31.82,0,0,1,3.63.83,1.67,1.67,0,0,1,1.31,1.64c0,.88,0,1.75,0,2.63V34.6c.18-.1.18-.28.24-.44,1.18-3.4,2.2-6.86,3.53-10.21A21.59,21.59,0,0,1,259.45,21a2.79,2.79,0,0,1,3.38-1.65,9.11,9.11,0,0,1,3.55,1.23,4.41,4.41,0,0,1,2.22,4c0,3,.08,6.08.27,9.12.13,2.09.32,4.18.49,6.28a.3.3,0,0,0,.19.28c.17-1,.33-1.9.51-2.84A85.06,85.06,0,0,1,275,21.58c.81-2,2.1-2.59,4.16-2.06a14.9,14.9,0,0,1,4.27,1.77,3.68,3.68,0,0,1,1.81,3.61,168.13,168.13,0,0,0-.2,18.1,19.23,19.23,0,0,0,1.09,6A5.54,5.54,0,0,0,287.28,51a2.1,2.1,0,0,0,3.27,0,7.19,7.19,0,0,0,1.34-2.59c.41-1.17.65-2.39,1-3.59a8.27,8.27,0,0,1,.38-1.09,1.16,1.16,0,0,1,1.22-.83,1.22,1.22,0,0,1,1.07,1,5.5,5.5,0,0,1,.07,2.25,20.1,20.1,0,0,1-1.76,6.26c-1.13,2.24-2.73,3.92-5.37,4.24a7.58,7.58,0,0,1-6.39-2.28,12.07,12.07,0,0,1-3.28-6.51,67.72,67.72,0,0,1-1-13.64c0-1.77.07-3.55.11-5.32a1.32,1.32,0,0,0-.05-.65c-.3.09-.32.35-.4.54a61.35,61.35,0,0,0-5.4,21.5c0,.53,0,1.06,0,1.59a1.51,1.51,0,0,1-1.25,1.76c-2.93.7-5.4-.12-6.55-3.23a25.92,25.92,0,0,1-1.15-5.8,149.39,149.39,0,0,1-1.06-14.94,1,1,0,0,0,0-.25c-.05-.24.1-.6-.24-.68s-.49.25-.63.49A37.37,37.37,0,0,0,258,36.83a46.88,46.88,0,0,0-2.07,13.66c0,1.33-.08,2.65-.13,4s-.43,1.84-1.81,2.07a10.18,10.18,0,0,1-5.59-.53,1.93,1.93,0,0,1-1.31-1.85c0-1.06-.16-2.12-.25-3.19-.19.05-.18.23-.24.36a19.11,19.11,0,0,1-1.13,2c-2.56,4-6.91,4-10,2a8.68,8.68,0,0,1-3.76-5.85c0-.07,0-.15,0-.32l-.8,1.31A12.83,12.83,0,0,1,224.52,56a9.21,9.21,0,0,1-11.72-4.05c-.16-.26-.3-.53-.45-.8-.22.06-.23.27-.31.41a11.47,11.47,0,0,1-1.66,2.41c-3,3.24-6.85,3.63-10.43,1a11.92,11.92,0,0,1-4.57-7.43,32.3,32.3,0,0,1-.44-10.1A56.78,56.78,0,0,1,196.36,29c.16-.68,0-.89-.67-.85-1.64.09-3.27.14-4.9.14-.33,0-.4.17-.48.42a75.93,75.93,0,0,1-8.38,16.85,68.52,68.52,0,0,1-5.26,7,1.45,1.45,0,0,0-.41,1.09c.06,3.67.25,7.34.12,11a31.83,31.83,0,0,1-2.45,12.14,11.91,11.91,0,0,1-11.06,7,11.78,11.78,0,0,1-5.15-1.41c-4-2.16-5.49-6.69-3.69-11.24a19.39,19.39,0,0,1,3.9-5.81c2.76-3.07,5.88-5.77,8.9-8.57l.59-.54c.59-.56,1.51-1,1.7-1.7a14.29,14.29,0,0,0,.07-3.48,1.18,1.18,0,0,0-.56.55,12,12,0,0,1-7.29,4.91,9.1,9.1,0,0,1-10-4.5c-.25-.42-.48-.84-.75-1.3a14.11,14.11,0,0,1-1.7,2.87c-2,2.48-4.53,3.63-7.67,2.92a7.73,7.73,0,0,1-6-6c-.09-.35-.15-.71-.25-1.18l-.59,1a13.46,13.46,0,0,1-5.59,5.32,9.29,9.29,0,0,1-12.57-3.65,13.2,13.2,0,0,1-1.17-2.35c-.31-.82-.57-1.65-.87-2.52-.18.44-.35.87-.54,1.29a19.47,19.47,0,0,1-4.31,6.31c-3.56,3.42-8,2-10.28-.53a14.31,14.31,0,0,1-3-6.19,28,28,0,0,1-.76-4.45.6.6,0,0,0-.15-.46c-.2.43-.38.84-.57,1.24a25.25,25.25,0,0,1-6.34,8.82,15.84,15.84,0,0,1-11.47,3.67A18.72,18.72,0,0,1,70,55.27a7,7,0,0,1-1.62-1,1.88,1.88,0,0,1-.66-2.18A7.2,7.2,0,0,1,70,48.54a1.83,1.83,0,0,1,2.45-.14c.85.57,1.66,1.19,2.51,1.74a4.92,4.92,0,0,0,3.23.92,4,4,0,0,0,3.32-3.58,7.79,7.79,0,0,0-1.42-5.78,16,16,0,0,0-2.56-3c-1.17-1.08-2.36-2.14-3.5-3.25-.38-.36-.54-.37-.82.11-2.43,4.1-4.86,8.2-7.35,12.26a25.65,25.65,0,0,1-5.91,7A7.84,7.84,0,0,1,56,56.64a4.27,4.27,0,0,1-4.6-2.41A14.48,14.48,0,0,1,50,48.94a78.83,78.83,0,0,1-.06-12.1c.14-3.51.29-7,.43-10.52,0-.23.1-.54-.2-.64s-.44.15-.61.32a30,30,0,0,0-4.85,7.16,74,74,0,0,0-5.86,17.1A42.19,42.19,0,0,0,38,55.39a1.09,1.09,0,0,1-.84,1.06,7.73,7.73,0,0,1-4.64-.17,2.9,2.9,0,0,1-1.63-2,12.34,12.34,0,0,1-.56-3.91c0-1-.06-2,0-3.06q.07-13,.17-26.07c0-.17,0-.33,0-.49,0-1.13.46-1.55,1.6-1.49a12,12,0,0,1,4.85,1.38,1.35,1.35,0,0,1,.72,1.36Q37.55,30,37.52,37.9v.75c.26-.11.25-.37.32-.56,1.22-3.21,2.22-6.51,3.71-9.62A23.2,23.2,0,0,1,46,21.73a7.67,7.67,0,0,1,4.63-2.39,4.33,4.33,0,0,1,1.93.21,16.17,16.17,0,0,1,4,2.15,3.91,3.91,0,0,1,1.66,3.49c-.14,3.68-.29,7.37-.42,11.06a95.17,95.17,0,0,0,.07,9.85,7.59,7.59,0,0,0,.48,2.39c.35.86.87,1,1.69.55a5.83,5.83,0,0,0,1.6-1.49,39.16,39.16,0,0,0,3-4.54c2-3.39,4-6.83,5.77-10.34.14-.26.26-.45,0-.76a7.8,7.8,0,0,1,.93-11A7.46,7.46,0,0,1,78,18.76a3,3,0,0,1,2.7,3.83A9,9,0,0,1,80,24.81a20.09,20.09,0,0,1-3,4.93c-.33.39-.35.54.08.86,2.2,1.62,4.37,3.27,6.55,4.93A15,15,0,0,1,88,40.31a9.32,9.32,0,0,1,.92,6.22C88.86,46.64,88.85,46.75,88.82,47Zm32.65-7.64a28.47,28.47,0,0,0,.66,7.08A9.84,9.84,0,0,0,124,50.5a3.27,3.27,0,0,0,4.44.77,6.59,6.59,0,0,0,1.92-1.76,13.38,13.38,0,0,0,2.21-4.8,35.39,35.39,0,0,0,.84-13.28,10.91,10.91,0,0,0-1.57-4.78,4.21,4.21,0,0,0-6.64-.71,9.48,9.48,0,0,0-2.28,3.86A31.92,31.92,0,0,0,121.47,39.33Zm108.7-3.72a26.12,26.12,0,0,0-.27-4.14,11.76,11.76,0,0,0-1.47-4.68,4.22,4.22,0,0,0-6.78-.81,9.6,9.6,0,0,0-2.5,4.68,38.16,38.16,0,0,0-.7,14.44,11.56,11.56,0,0,0,1.63,4.82,3.91,3.91,0,0,0,2.23,1.8,3.76,3.76,0,0,0,3.53-1.06,9.59,9.59,0,0,0,2.5-3.79A29.35,29.35,0,0,0,230.17,35.61Zm-73.61,4a30.81,30.81,0,0,0,.37,5.33,13,13,0,0,0,1.64,5,3.56,3.56,0,0,0,5.94.64,10.27,10.27,0,0,0,2.68-4.59,35.89,35.89,0,0,0,1.31-14.75,10.57,10.57,0,0,0-1.29-4.48,3.76,3.76,0,0,0-2.54-1.94,4.57,4.57,0,0,0-4.49,1.61,10.42,10.42,0,0,0-1.94,3.31A30,30,0,0,0,156.56,39.61ZM169.51,60c-.69.69-1.3,1.29-1.89,1.9a43.88,43.88,0,0,0-6.72,8.29A11.51,11.51,0,0,0,159,76.4a3.86,3.86,0,0,0,4.32,3.92,4.91,4.91,0,0,0,4-2.68,12.54,12.54,0,0,0,1-2.44,36,36,0,0,0,1.21-8.75C169.57,64.36,169.51,62.26,169.51,60Z"/><path class="cls-1" d="M15.12,29.27V6.57a10,10,0,0,0,0-1.1c-.06-.42-.3-.54-.63-.26A18.12,18.12,0,0,0,13,6.56,23.6,23.6,0,0,0,7.87,16.63,22,22,0,0,0,7.48,27a11.82,11.82,0,0,0,1.64,3.85,7.57,7.57,0,0,1,.75,1.33c.39,1.06-.18,1.76-1.29,1.55a9,9,0,0,1-4.42-2.35A11.63,11.63,0,0,1,.3,19.76a27.91,27.91,0,0,1,13-18.57c2.87-1.79,5.61-1.39,8.37.14A2.77,2.77,0,0,1,23.21,4c.14,13.59.09,27.17-.06,40.75a35.76,35.76,0,0,1-1,9.16A15.25,15.25,0,0,1,18,61.2a10.55,10.55,0,0,1-2.93,2,3.62,3.62,0,0,1-1.11.32c-.82.09-1.19-.29-1.07-1.11a4.36,4.36,0,0,1,.21-1,36.16,36.16,0,0,0,1.78-12.34c0-6.61,0-13.22,0-19.82Z"/></g></g></svg>