<svg xmlns="http://www.w3.org/2000/svg" viewBox="0 0 58.67 54.85"><defs><style>.cls-1{fill:#191919;}</style></defs><g id="Layer_2" data-name="Layer 2"><g id="Layer_1-2" data-name="Layer 1"><path class="cls-1" d="M19.34,0A40,40,0,0,1,26.4,2.11c2.14,1,3.73,1.19,5.9.05,10.52-5.55,24.83.84,26.27,15a16.75,16.75,0,0,1-4.71,13.71c-7.55,7.73-15.27,15.3-22.86,23-1.2,1.21-2,1.34-3.21.08C20.2,46.26,12.33,38.83,5,30.92c-5.3-5.69-6.38-12.58-3.14-19.84C5,4,10.76.73,19.34,0Zm-.28,6.14C13.81,6.08,9.19,8.8,7.23,13.26c-2.12,4.8-1.77,9.52,1.92,13.4,6.29,6.61,12.82,13,19.25,19.5.67.68,1.23.77,2,0,6.53-6.61,13.36-13,19.59-19.85C55.13,20.61,53.23,12,46.7,7.85c-3.41-2.15-9.69-2.64-14,.8-3.34,2.67-3.41,2.56-6.61.11C24,7.12,21.62,5.93,19.06,6.14Z"/></g></g></svg>