<svg xmlns="http://www.w3.org/2000/svg" viewBox="0 0 54.32 57.06"><defs><style>.cls-1{fill:#191919;}</style></defs><g id="Layer_2" data-name="Layer 2"><g id="Layer_1-2" data-name="Layer 1"><path class="cls-1" d="M53.48,27.14a95.58,95.58,0,0,1-2.71,10,7.58,7.58,0,0,0,0,6.17c1.22,2.88,1.95,6,3.13,8.87.64,1.56.67,2.94-.44,4.09s-2.66.89-4.12.2C46.46,55.1,43.49,54,40.7,52.57a8.64,8.64,0,0,0-7-.62C16.13,57.15-.61,43.07,0,25.78.51,12.22,10.38,1.23,24.89.08,38.18-1,50.38,8.66,52.68,22A48.23,48.23,0,0,1,53,27ZM47.25,49.33c-3.26-6.19-3.07-11.07-.86-16.58,3.63-9-1-17.83-7-22.64A20.85,20.85,0,0,0,7.13,34.35c3.24,8.2,13.21,16.1,25.76,12.17a12,12,0,0,1,9.57.67C43.61,47.77,44.82,48.25,47.25,49.33Z"/></g></g></svg>