<svg xmlns="http://www.w3.org/2000/svg" viewBox="0 0 53.49 53.62"><defs><style>.cls-1{fill:#191919;}</style></defs><g id="Layer_2" data-name="Layer 2"><g id="Layer_1-2" data-name="Layer 1"><path class="cls-1" d="M53.47,26.88c0,3.83-.07,7.67,0,11.5a14.54,14.54,0,0,1-14.92,15.2c-8,0-16,.12-24,0C6.05,53.37.23,47.48.09,39q-.18-12.24,0-24.49A14.16,14.16,0,0,1,14.23.12c8.33-.18,16.66-.14,25,0A14.25,14.25,0,0,1,53.44,14.38c.1,4.16,0,8.33,0,12.5ZM26.33,48.63c4.32,0,8.65.07,13,0,5.21-.1,9.25-3.74,9.39-9,.23-8.48.2-17,0-25.45a9.64,9.64,0,0,0-9.27-9.32c-8.48-.19-17-.22-25.45,0a9.23,9.23,0,0,0-9,9.39q-.13,12.48,0,25c.07,5.6,3.82,9.29,9.39,9.41C18.34,48.7,22.34,48.63,26.33,48.63Z"/><path class="cls-1" d="M35.15,29c-7.07,0-6.06-.55-6.13,6.13,0,1.5.05,3-.06,4.49a2.14,2.14,0,0,1-2.26,2.17c-1.53,0-2.05-.87-2.07-2.2,0-2.66-.08-5.33,0-8,.05-1.94-.82-2.69-2.71-2.63-2.5.07-5,0-7.5,0-1.5,0-2.69-.41-2.58-2.21s1.23-2.2,2.74-2.19c2.34,0,4.67,0,7,0,3,0,3-.08,3-3,0-2.33,0-4.66,0-7,0-1.47.56-2.79,2.18-2.8S29,13,29,14.47c0,2.67,0,5.33,0,8,0,1.45.51,2.13,2,2.11,2.67,0,5.33,0,8,0,1.52,0,2.75.55,2.82,2.11S40.62,28.9,39.15,29,36.49,29,35.15,29Z"/></g></g></svg>