<svg xmlns="http://www.w3.org/2000/svg" viewBox="0 0 54.26 54.56"><defs><style>.cls-1{fill:#191919;}</style></defs><g id="Layer_2" data-name="Layer 2"><g id="Layer_1-2" data-name="Layer 1"><path class="cls-1" d="M54.22,27.4c.72,11.79-9,26.87-27.19,27.16C12.13,54.8,0,42.15,0,27.09A27.15,27.15,0,0,1,27.32,0C43.19,0,55.05,13.71,54.22,27.4ZM45.76,39.87c3.08-5.14,4.75-10.39,3.49-16.51C47.36,14.15,41.91,8,33.07,5.63c-8.63-2.35-16.41,0-22.64,6.73-7,7.59-6.86,19-2.75,26,1.05,1.79,1.89,2,3.36.7a9.81,9.81,0,0,1,1.62-1.17c6-3.62,12.27-5.38,19.42-4.13C37.18,34.62,41.41,36.94,45.76,39.87Zm-3.83,3.8c-6.74-7.36-20.07-7.27-27.67-1.13-1.37,1.11-1.6,1.87,0,3C22.4,51.33,34.27,51.56,41.93,43.67Z"/><path class="cls-1" d="M17.92,20.77c0-5.75,3.9-9.78,9.54-9.84a9.81,9.81,0,0,1,10.19,9.88A10.15,10.15,0,0,1,27.46,30.87,9.85,9.85,0,0,1,17.92,20.77Zm9.89,5c2.54-.13,5.15-2.94,4.9-5.27A5.32,5.32,0,0,0,27.65,16a4.78,4.78,0,0,0-4.73,5.19A5.07,5.07,0,0,0,27.81,25.81Z"/></g></g></svg>