<svg xmlns="http://www.w3.org/2000/svg" viewBox="0 0 53.51 53.57"><defs><style>.cls-1{fill:#191919;}</style></defs><g id="Layer_2" data-name="Layer 2"><g id="Layer_1-2" data-name="Layer 1"><path class="cls-1" d="M53.44,27.08c0,4.16.05,8.32,0,12.47-.12,8.61-5.35,13.86-14,14-8.48.09-17,.07-25.44,0S.1,48.06,0,39.43C0,31,.1,22.47,0,14-.1,5.18,6.66-.14,14.05,0c8.32.16,16.64.14,25,0,8.9-.16,15,6.38,14.48,14.61-.26,4.14,0,8.31,0,12.47ZM27.1,19.49v0c-6.65,0-13.31,0-20,0-1.81,0-2.74.34-2.7,2.44.13,6.16,0,12.32.12,18.47a8.87,8.87,0,0,0,7.85,8.87,19.73,19.73,0,0,0,3,0c7.49,0,15,0,22.47,0,7.91,0,11.43-3.62,11.4-11.68,0-5.15-.3-10.3-.22-15.45,0-2.34-.95-2.76-3-2.73C39.75,19.55,33.43,19.49,27.1,19.49Zm-7.79-15c-.16.53-.26.67-.23.78.53,1.89,1.08,3.78,1.61,5.67,1.23,4.36,1.23,4.44,5.59,4.39,11.22-.14,8.27,1.57,6-8.77a2.48,2.48,0,0,0-2.83-2.11C26.06,4.59,22.61,4.5,19.31,4.5ZM11.06,15.34v.14L17,15.05,15.61,9c-.07-.33,0-.67-.14-1C14.38,4.22,13,3.59,9.42,5.33A8.27,8.27,0,0,0,4.5,12.79c-.11,1.93.61,2.75,2.57,2.58C8.39,15.25,9.73,15.34,11.06,15.34Zm32.83,0c1.16,0,2.33.06,3.49,0,1.46-.09,2-1,1.89-2.39a9.37,9.37,0,0,0-7.38-8.29c-5.28-.89-5.79-.34-4.34,4.69a28.43,28.43,0,0,0,1.25,4.27,3.71,3.71,0,0,0,2.11,1.66A10.19,10.19,0,0,0,43.89,15.34Z"/><path class="cls-1" d="M19.67,43.45V24.64L36,34Z"/></g></g></svg>