<svg xmlns="http://www.w3.org/2000/svg" viewBox="0 0 43.76 55.3"><defs><style>.cls-1{fill:#191919;}</style></defs><g id="Layer_2" data-name="Layer 2"><g id="Layer_1-2" data-name="Layer 1"><path class="cls-1" d="M43.72,55.3l-9.18-11c-3.62-4.33-7.23-8.68-10.87-13-1.64-1.95-1.72-2-3.31-.1Q12.13,40.9,3.94,50.62C2.77,52,1.57,53.34,0,55.11,0,37.2.05,19.89,0,2.59,0,.7.49,0,2.52,0Q21.74.14,41,0c2.21,0,2.82.66,2.8,2.82-.08,14.48,0,29,0,43.44C43.71,48.92,43.72,51.57,43.72,55.3ZM38,41.09l1-.15q0-17.19,0-34.4c0-2.13-1.51-1.77-2.79-1.77-9.49,0-19,0-28.46,0-3,0-3,.09-3,3q0,15,0,30c0,1.08.14,2.16.29,4.2,6-7,11.52-13.4,17.06-19.84Z"/></g></g></svg>