<svg xmlns="http://www.w3.org/2000/svg" viewBox="0 0 52.88 53.4"><defs><style>.cls-1{fill:#191919;}</style></defs><g id="Layer_2" data-name="Layer 2"><g id="Layer_1-2" data-name="Layer 1"><path class="cls-1" d="M0,22.69C.25,13,5.68,5,14.78,1.48A22.52,22.52,0,0,1,43.22,31.93c-.74,1.64-2.33,3.45-2,4.86.36,1.7,2.25,3.12,3.6,4.55,2.18,2.29,4.44,4.51,6.71,6.72,1.32,1.29,2,2.65.62,4.27s-2.83,1.46-4.73-.33c-2.79-2.62-5.42-5.41-8.17-8.08-3.55-3.47-2.34-3.37-6.56-1.15-12,6.32-28.18-.31-31.6-14.25C.59,26.61.35,24.63,0,22.69ZM22.89,5.61c-9.18-.09-17.38,8-17.3,17S13.53,39.31,22.5,39.52c8.45.19,17-6.9,17.06-16.5A17,17,0,0,0,22.89,5.61Z"/></g></g></svg>