<svg xmlns="http://www.w3.org/2000/svg" viewBox="0 0 65.41 55.71"><defs><style>.cls-1{fill:#191919;}</style></defs><g id="Layer_2" data-name="Layer 2"><g id="Layer_1-2" data-name="Layer 1"><path class="cls-1" d="M65.41,0,33.26,55.71l-.78-.22c-.38-3.54-.78-7.07-1.14-10.61C30.63,38,29.86,31,29.28,24.1a6,6,0,0,0-2.79-4.87C18.87,13.89,11.36,8.39,3.82,2.93,2.65,2.08,1.52,1.17,0,0ZM52.62,10.44C47,13.58,41.35,16.75,35.69,19.86A3,3,0,0,0,34,23.1c.56,5.29,1,10.58,1.57,15.86a7.41,7.41,0,0,0,.82,1.75c3.1-5.39,6-10.4,8.85-15.44,2.68-4.74,5.29-9.52,7.93-14.29l.47-1ZM16.2,4.92,16,5.69l13.58,9.86c1.62,1.18,3.09.58,4.6-.31C38.86,12.48,43.6,9.78,48.3,7c.87-.51,1.65-1.17,3-2.11Z"/></g></g></svg>